<?xml version="1.0" encoding="UTF-8" standalone="no"?><!DOCTYPE svg PUBLIC "-//W3C//DTD SVG 1.1//EN" "http://www.w3.org/Graphics/SVG/1.1/DTD/svg11.dtd"><!-- Generated by graphviz version 2.40.1 (20161225.0304)
 --><!-- Title: G Pages: 1 --><svg xmlns="http://www.w3.org/2000/svg" xmlns:xlink="http://www.w3.org/1999/xlink" width="361pt" height="244pt" viewBox="0.00 0.00 361.32 243.69">
<g id="graph0" class="graph" transform="scale(1 1) rotate(0) translate(4 239.6866)">
<title>G</title>
<polygon fill="#ffffff" stroke="transparent" points="-4,4 -4,-239.6866 357.3224,-239.6866 357.3224,4 -4,4"/>
<!-- lq0 -->
<g id="node1" class="node">
<title>lq0</title>
<ellipse fill="none" stroke="#000000" cx="140.5666" cy="-135.8866" rx="23.2549" ry="23.2549"/>
<text text-anchor="middle" x="140.5666" y="-131.6866" font-family="Times,serif" font-size="14.00" fill="#000000">lq0</text>
</g>
<!-- lq1 -->
<g id="node3" class="node">
<title>lq1</title>
<ellipse fill="none" stroke="#000000" cx="230.5977" cy="-199.8866" rx="23.2549" ry="23.2549"/>
<text text-anchor="middle" x="230.5977" y="-195.6866" font-family="Times,serif" font-size="14.00" fill="#000000">lq1</text>
</g>
<!-- lq0&#45;&gt;lq1 -->
<g id="edge1" class="edge">
<title>lq0-&gt;lq1</title>
<path fill="none" stroke="#000000" d="M156.046,-154.1298C163.469,-162.1202 172.834,-171.1822 182.4748,-177.8866 187.5963,-181.4481 193.3867,-184.6681 199.1309,-187.4773"/>
<polygon fill="#000000" stroke="#000000" points="198.0769,-190.8432 208.628,-191.8046 200.9794,-184.4733 198.0769,-190.8432"/>
<text text-anchor="start" x="182.4748" y="-185.0866" font-family="Times,serif" font-size="14.00" fill="#000000">a</text>
</g>
<!-- lq0&#45;&gt;lq1 -->
<g id="edge3" class="edge">
<title>lq0-&gt;lq1</title>
<path fill="none" stroke="#000000" d="M163.0592,-143.7179C171.4765,-147.1709 180.8825,-151.6829 188.6894,-157.0866 195.6638,-161.9139 202.4481,-168.0098 208.4555,-174.0759"/>
<polygon fill="#000000" stroke="#000000" points="206.1943,-176.7791 215.6051,-181.6459 211.2833,-171.9726 206.1943,-176.7791"/>
<text text-anchor="start" x="182.4748" y="-161.0866" font-family="Times,serif" font-size="14.00" fill="#000000">c</text>
</g>
<!-- lq2 -->
<g id="node4" class="node">
<title>lq2</title>
<ellipse fill="none" stroke="#0000ff" cx="325.4142" cy="-179.8866" rx="23.2727" ry="23.2727"/>
<ellipse fill="none" stroke="#0000ff" cx="325.4142" cy="-179.8866" rx="27.2548" ry="27.2548"/>
<text text-anchor="middle" x="325.4142" y="-175.6866" font-family="Times,serif" font-size="14.00" fill="#000000">lq2</text>
</g>
<!-- lq0&#45;&gt;lq2 -->
<g id="edge2" class="edge">
<title>lq0-&gt;lq2</title>
<path fill="none" stroke="#000000" d="M164.0347,-137.2766C187.3104,-139.0596 223.8353,-142.9534 254.5059,-151.0866 266.8474,-154.3593 279.9147,-159.233 291.424,-164.0446"/>
<polygon fill="#000000" stroke="#000000" points="290.1068,-167.2881 300.6753,-168.0353 292.8795,-160.8606 290.1068,-167.2881"/>
<text text-anchor="start" x="227.0977" y="-155.0866" font-family="Times,serif" font-size="14.00" fill="#000000">b</text>
</g>
<!-- lq0rq0 -->
<g id="node2" class="node">
<title>lq0rq0</title>
<ellipse fill="none" stroke="#00ff00" cx="36.2489" cy="-99.8866" rx="36.4994" ry="36.4994"/>
<text text-anchor="middle" x="36.2489" y="-95.6866" font-family="Times,serif" font-size="14.00" fill="#000000">lq0rq0</text>
</g>
<!-- lq0rq0&#45;&gt;lq0 -->
<g id="edge4" class="edge">
<title>lq0rq0-&gt;lq0</title>
<path fill="none" stroke="#000000" d="M70.6955,-111.7741C82.9357,-115.9982 96.6527,-120.7319 108.6703,-124.8792"/>
<polygon fill="#000000" stroke="#000000" points="107.701,-128.2472 118.2958,-128.2009 109.9846,-121.6301 107.701,-128.2472"/>
<text text-anchor="start" x="90.4977" y="-125.0866" font-family="Times,serif" font-size="14.00" fill="#000000">ε</text>
</g>
<!-- rq0 -->
<g id="node5" class="node">
<title>rq0</title>
<ellipse fill="none" stroke="#000000" cx="140.5666" cy="-67.8866" rx="23.8168" ry="23.8168"/>
<text text-anchor="middle" x="140.5666" y="-63.6866" font-family="Times,serif" font-size="14.00" fill="#000000">rq0</text>
</g>
<!-- lq0rq0&#45;&gt;rq0 -->
<g id="edge5" class="edge">
<title>lq0rq0-&gt;rq0</title>
<path fill="none" stroke="#000000" d="M70.9851,-89.231C82.8122,-85.603 95.9896,-81.5608 107.6682,-77.9783"/>
<polygon fill="#000000" stroke="#000000" points="108.9399,-81.2493 117.4737,-74.9704 106.887,-74.557 108.9399,-81.2493"/>
<text text-anchor="start" x="90.4977" y="-87.0866" font-family="Times,serif" font-size="14.00" fill="#000000">ε</text>
</g>
<!-- lq1&#45;&gt;lq2 -->
<g id="edge6" class="edge">
<title>lq1-&gt;lq2</title>
<path fill="none" stroke="#000000" d="M250.0904,-213.5835C259.0416,-218.1946 269.8017,-221.3818 279.5059,-217.8866 286.4659,-215.3797 293.1192,-211.3089 299.0942,-206.7434"/>
<polygon fill="#000000" stroke="#000000" points="301.3602,-209.411 306.7867,-200.3113 296.87,-204.0409 301.3602,-209.411"/>
<text text-anchor="start" x="272.8986" y="-223.0866" font-family="Times,serif" font-size="14.00" fill="#000000">a</text>
</g>
<!-- lq1&#45;&gt;lq2 -->
<g id="edge7" class="edge">
<title>lq1-&gt;lq2</title>
<path fill="none" stroke="#000000" d="M253.5501,-195.0451C263.978,-192.8455 276.5797,-190.1874 288.2996,-187.7153"/>
<polygon fill="#000000" stroke="#000000" points="289.2328,-191.0955 298.2951,-185.6069 287.788,-184.2462 289.2328,-191.0955"/>
<text text-anchor="start" x="272.5059" y="-194.0866" font-family="Times,serif" font-size="14.00" fill="#000000">b</text>
</g>
<!-- lq1&#45;&gt;lq2 -->
<g id="edge8" class="edge">
<title>lq1-&gt;lq2</title>
<path fill="none" stroke="#000000" d="M247.5337,-183.6273C254.6632,-177.8623 263.4114,-172.0691 272.5059,-169.0866 278.1556,-167.2338 284.2532,-166.9619 290.2301,-167.6012"/>
<polygon fill="#000000" stroke="#000000" points="289.605,-171.0449 300.0744,-169.4194 290.8765,-164.1613 289.605,-171.0449"/>
<text text-anchor="start" x="272.8986" y="-173.0866" font-family="Times,serif" font-size="14.00" fill="#000000">c</text>
</g>
<!-- rq1 -->
<g id="node6" class="node">
<title>rq1</title>
<ellipse fill="none" stroke="#000000" cx="230.5977" cy="-54.8866" rx="23.8168" ry="23.8168"/>
<text text-anchor="middle" x="230.5977" y="-50.6866" font-family="Times,serif" font-size="14.00" fill="#000000">rq1</text>
</g>
<!-- rq0&#45;&gt;rq1 -->
<g id="edge9" class="edge">
<title>rq0-&gt;rq1</title>
<path fill="none" stroke="#000000" d="M164.6933,-64.4028C174.4595,-62.9926 185.9112,-61.339 196.5041,-59.8095"/>
<polygon fill="#000000" stroke="#000000" points="197.3194,-63.2281 206.7166,-58.3349 196.319,-56.3 197.3194,-63.2281"/>
<text text-anchor="start" x="182.4748" y="-65.0866" font-family="Times,serif" font-size="14.00" fill="#000000">a</text>
</g>
<!-- rq0&#45;&gt;rq1 -->
<g id="edge11" class="edge">
<title>rq0-&gt;rq1</title>
<path fill="none" stroke="#000000" d="M158.9743,-52.3062C165.8923,-47.4004 174.1155,-42.6071 182.4748,-40.0866 188.0191,-38.4148 193.9166,-38.5995 199.6133,-39.7918"/>
<polygon fill="#000000" stroke="#000000" points="198.9436,-43.2476 209.5307,-42.8426 201.0018,-36.557 198.9436,-43.2476"/>
<text text-anchor="start" x="182.4748" y="-44.0866" font-family="Times,serif" font-size="14.00" fill="#000000">c</text>
</g>
<!-- rq2 -->
<g id="node7" class="node">
<title>rq2</title>
<ellipse fill="none" stroke="#0000ff" cx="325.4142" cy="-34.8866" rx="23.8299" ry="23.8299"/>
<ellipse fill="none" stroke="#0000ff" cx="325.4142" cy="-34.8866" rx="27.8168" ry="27.8168"/>
<text text-anchor="middle" x="325.4142" y="-30.6866" font-family="Times,serif" font-size="14.00" fill="#000000">rq2</text>
</g>
<!-- rq0&#45;&gt;rq2 -->
<g id="edge10" class="edge">
<title>rq0-&gt;rq2</title>
<path fill="none" stroke="#000000" d="M154.5653,-48.1194C166.4808,-33.1411 185.0749,-13.715 206.6894,-5.0866 234.5676,6.0424 267.826,-4.1819 292.0402,-15.5838"/>
<polygon fill="#000000" stroke="#000000" points="290.6605,-18.8068 301.1713,-20.1394 293.7857,-12.5431 290.6605,-18.8068"/>
<text text-anchor="start" x="227.0977" y="-9.0866" font-family="Times,serif" font-size="14.00" fill="#000000">b</text>
</g>
<!-- rq1&#45;&gt;rq2 -->
<g id="edge12" class="edge">
<title>rq1-&gt;rq2</title>
<path fill="none" stroke="#000000" d="M250.5632,-68.8248C259.4188,-73.3044 269.9719,-76.3205 279.5059,-72.8866 286.1769,-70.4838 292.5662,-66.6443 298.3465,-62.3094"/>
<polygon fill="#000000" stroke="#000000" points="300.8551,-64.7772 306.3415,-55.7136 296.4004,-59.3776 300.8551,-64.7772"/>
<text text-anchor="start" x="272.8986" y="-78.0866" font-family="Times,serif" font-size="14.00" fill="#000000">a</text>
</g>
<!-- rq1&#45;&gt;rq2 -->
<g id="edge13" class="edge">
<title>rq1-&gt;rq2</title>
<path fill="none" stroke="#000000" d="M254.0355,-49.9427C264.2999,-47.7776 276.5987,-45.1834 288.0728,-42.7631"/>
<polygon fill="#000000" stroke="#000000" points="288.8096,-46.1848 297.8719,-40.6962 287.3648,-39.3355 288.8096,-46.1848"/>
<text text-anchor="start" x="272.5059" y="-49.0866" font-family="Times,serif" font-size="14.00" fill="#000000">b</text>
</g>
<!-- rq1&#45;&gt;rq2 -->
<g id="edge14" class="edge">
<title>rq1-&gt;rq2</title>
<path fill="none" stroke="#000000" d="M247.939,-38.3009C254.9934,-32.6447 263.583,-27.0128 272.5059,-24.0866 277.9064,-22.3155 283.7163,-21.9889 289.4387,-22.522"/>
<polygon fill="#000000" stroke="#000000" points="289.0847,-26.0131 299.5374,-24.2838 290.2878,-19.1172 289.0847,-26.0131"/>
<text text-anchor="start" x="272.8986" y="-28.0866" font-family="Times,serif" font-size="14.00" fill="#000000">c</text>
</g>
</g>
</svg>