<?xml version="1.0" encoding="UTF-8" standalone="no"?>
<!DOCTYPE svg PUBLIC "-//W3C//DTD SVG 1.1//EN"
 "http://www.w3.org/Graphics/SVG/1.1/DTD/svg11.dtd">
<!-- Generated by graphviz version 2.43.0 (0)
 -->
<!-- Title: G Pages: 1 -->
<svg width="558pt" height="123pt"
 viewBox="0.00 0.00 557.87 123.00" xmlns="http://www.w3.org/2000/svg" xmlns:xlink="http://www.w3.org/1999/xlink">
<g id="graph0" class="graph" transform="scale(1 1) rotate(0) translate(4 119)">
<title>G</title>
<polygon fill="white" stroke="transparent" points="-4,4 -4,-119 553.87,-119 553.87,4 -4,4"/>
<!-- fq0 -->
<g id="node1" class="node">
<title>fq0</title>
<ellipse fill="none" stroke="green" cx="26" cy="-26" rx="26" ry="26"/>
<text text-anchor="middle" x="26" y="-22.3" font-family="Times,serif" font-size="14.00">fq0</text>
</g>
<!-- fq1 -->
<g id="node2" class="node">
<title>fq1</title>
<ellipse fill="none" stroke="black" cx="122.99" cy="-64" rx="26" ry="26"/>
<text text-anchor="middle" x="122.99" y="-60.3" font-family="Times,serif" font-size="14.00">fq1</text>
</g>
<!-- fq0&#45;&gt;fq1 -->
<g id="edge1" class="edge">
<title>fq0&#45;&gt;fq1</title>
<path fill="none" stroke="black" d="M50.48,-35.39C62.13,-40.05 76.39,-45.75 89.1,-50.84"/>
<polygon fill="black" stroke="black" points="87.87,-54.12 98.45,-54.58 90.47,-47.62 87.87,-54.12"/>
<text text-anchor="start" x="70" y="-49.8" font-family="Times,serif" font-size="14.00">a</text>
</g>
<!-- fq0&#45;&gt;fq1 -->
<g id="edge3" class="edge">
<title>fq0&#45;&gt;fq1</title>
<path fill="none" stroke="black" d="M51.76,-21.01C60.62,-20.27 70.5,-20.66 79,-24 86.17,-26.82 92.86,-31.46 98.72,-36.61"/>
<polygon fill="black" stroke="black" points="96.55,-39.38 106.17,-43.81 101.42,-34.35 96.55,-39.38"/>
<text text-anchor="start" x="70.5" y="-27.8" font-family="Times,serif" font-size="14.00">c</text>
</g>
<!-- fq2 -->
<g id="node3" class="node">
<title>fq2</title>
<ellipse fill="none" stroke="black" cx="220.99" cy="-45" rx="26" ry="26"/>
<text text-anchor="middle" x="220.99" y="-41.3" font-family="Times,serif" font-size="14.00">fq2</text>
</g>
<!-- fq0&#45;&gt;fq2 -->
<g id="edge2" class="edge">
<title>fq0&#45;&gt;fq2</title>
<path fill="none" stroke="black" d="M51.54,-19.26C76.34,-13.47 115.66,-7.04 148.99,-14 162.6,-16.84 176.79,-22.44 188.88,-28.11"/>
<polygon fill="black" stroke="black" points="187.55,-31.36 198.07,-32.62 190.64,-25.07 187.55,-31.36"/>
<text text-anchor="start" x="117.99" y="-17.8" font-family="Times,serif" font-size="14.00">b</text>
</g>
<!-- fq1&#45;&gt;fq2 -->
<g id="edge4" class="edge">
<title>fq1&#45;&gt;fq2</title>
<path fill="none" stroke="black" d="M145.81,-76.91C155.44,-80.99 166.85,-83.6 176.99,-80 183.18,-77.8 189.13,-74.28 194.52,-70.31"/>
<polygon fill="black" stroke="black" points="196.95,-72.84 202.49,-63.82 192.53,-67.42 196.95,-72.84"/>
<text text-anchor="start" x="167.49" y="-84.8" font-family="Times,serif" font-size="14.00">a</text>
</g>
<!-- fq1&#45;&gt;fq2 -->
<g id="edge5" class="edge">
<title>fq1&#45;&gt;fq2</title>
<path fill="none" stroke="black" d="M148.71,-59.1C159.91,-56.89 173.34,-54.23 185.5,-51.82"/>
<polygon fill="black" stroke="black" points="186.22,-55.25 195.35,-49.87 184.86,-48.38 186.22,-55.25"/>
<text text-anchor="start" x="166.99" y="-58.8" font-family="Times,serif" font-size="14.00">b</text>
</g>
<!-- fq1&#45;&gt;fq2 -->
<g id="edge6" class="edge">
<title>fq1&#45;&gt;fq2</title>
<path fill="none" stroke="black" d="M143.19,-46.88C150.19,-41.7 158.48,-36.67 166.99,-34 173.29,-32.02 180.11,-31.95 186.71,-32.9"/>
<polygon fill="black" stroke="black" points="186.26,-36.38 196.78,-35.09 187.75,-29.54 186.26,-36.38"/>
<text text-anchor="start" x="167.99" y="-37.8" font-family="Times,serif" font-size="14.00">c</text>
</g>
<!-- tq0 -->
<g id="node4" class="node">
<title>tq0</title>
<ellipse fill="none" stroke="black" cx="317.63" cy="-45" rx="26.8" ry="26.8"/>
<text text-anchor="middle" x="317.63" y="-41.3" font-family="Times,serif" font-size="14.00">tq0</text>
</g>
<!-- fq2&#45;&gt;tq0 -->
<g id="edge7" class="edge">
<title>fq2&#45;&gt;tq0</title>
<path fill="none" stroke="black" d="M247.35,-45C257.56,-45 269.52,-45 280.6,-45"/>
<polygon fill="black" stroke="black" points="280.87,-48.5 290.87,-45 280.87,-41.5 280.87,-48.5"/>
<text text-anchor="start" x="264.99" y="-48.8" font-family="Times,serif" font-size="14.00">ε</text>
</g>
<!-- tq1 -->
<g id="node5" class="node">
<title>tq1</title>
<ellipse fill="none" stroke="black" cx="415.93" cy="-83" rx="26.8" ry="26.8"/>
<text text-anchor="middle" x="415.93" y="-79.3" font-family="Times,serif" font-size="14.00">tq1</text>
</g>
<!-- tq0&#45;&gt;tq1 -->
<g id="edge8" class="edge">
<title>tq0&#45;&gt;tq1</title>
<path fill="none" stroke="black" d="M342.93,-54.59C354.65,-59.21 368.9,-64.83 381.61,-69.85"/>
<polygon fill="black" stroke="black" points="380.38,-73.13 390.97,-73.54 382.95,-66.62 380.38,-73.13"/>
<text text-anchor="start" x="362.28" y="-68.8" font-family="Times,serif" font-size="14.00">a</text>
</g>
<!-- tq0&#45;&gt;tq1 -->
<g id="edge10" class="edge">
<title>tq0&#45;&gt;tq1</title>
<path fill="none" stroke="black" d="M343.96,-39.98C352.86,-39.26 362.76,-39.68 371.28,-43 378.39,-45.76 385.05,-50.29 390.92,-55.32"/>
<polygon fill="black" stroke="black" points="388.73,-58.07 398.41,-62.38 393.53,-52.97 388.73,-58.07"/>
<text text-anchor="start" x="362.78" y="-46.8" font-family="Times,serif" font-size="14.00">c</text>
</g>
<!-- tq2 -->
<g id="node6" class="node">
<title>tq2</title>
<ellipse fill="none" stroke="blue" cx="519.22" cy="-64" rx="26.78" ry="26.78"/>
<ellipse fill="none" stroke="blue" cx="519.22" cy="-64" rx="30.8" ry="30.8"/>
<text text-anchor="middle" x="519.22" y="-60.3" font-family="Times,serif" font-size="14.00">tq2</text>
</g>
<!-- tq0&#45;&gt;tq2 -->
<g id="edge9" class="edge">
<title>tq0&#45;&gt;tq2</title>
<path fill="none" stroke="black" d="M343.54,-37.98C368.72,-31.92 408.65,-25.12 442.58,-32 456.03,-34.73 470.06,-39.93 482.34,-45.36"/>
<polygon fill="black" stroke="black" points="481.21,-48.69 491.76,-49.72 484.15,-42.34 481.21,-48.69"/>
<text text-anchor="start" x="410.93" y="-35.8" font-family="Times,serif" font-size="14.00">b</text>
</g>
<!-- tq1&#45;&gt;tq2 -->
<g id="edge11" class="edge">
<title>tq1&#45;&gt;tq2</title>
<path fill="none" stroke="black" d="M439.46,-95.92C449.08,-99.84 460.42,-102.33 470.58,-99 476.59,-97.03 482.48,-93.97 487.94,-90.47"/>
<polygon fill="black" stroke="black" points="489.98,-93.31 496.15,-84.7 485.95,-87.59 489.98,-93.31"/>
<text text-anchor="start" x="461.08" y="-103.8" font-family="Times,serif" font-size="14.00">a</text>
</g>
<!-- tq1&#45;&gt;tq2 -->
<g id="edge12" class="edge">
<title>tq1&#45;&gt;tq2</title>
<path fill="none" stroke="black" d="M442.23,-78.25C453.31,-76.17 466.57,-73.69 478.89,-71.38"/>
<polygon fill="black" stroke="black" points="479.76,-74.77 488.94,-69.49 478.47,-67.89 479.76,-74.77"/>
<text text-anchor="start" x="460.58" y="-77.8" font-family="Times,serif" font-size="14.00">b</text>
</g>
<!-- tq1&#45;&gt;tq2 -->
<g id="edge13" class="edge">
<title>tq1&#45;&gt;tq2</title>
<path fill="none" stroke="black" d="M436.97,-66.13C443.99,-61.23 452.22,-56.52 460.58,-54 466.77,-52.13 473.44,-51.81 479.98,-52.38"/>
<polygon fill="black" stroke="black" points="479.64,-55.87 490.05,-53.92 480.69,-48.95 479.64,-55.87"/>
<text text-anchor="start" x="461.58" y="-57.8" font-family="Times,serif" font-size="14.00">c</text>
</g>
</g>
</svg>
