<?xml version="1.0" encoding="UTF-8" standalone="no"?><!DOCTYPE svg PUBLIC "-//W3C//DTD SVG 1.1//EN" "http://www.w3.org/Graphics/SVG/1.1/DTD/svg11.dtd"><!-- Generated by graphviz version 2.40.1 (20161225.0304)
 --><!-- Title: G Pages: 1 --><svg xmlns="http://www.w3.org/2000/svg" xmlns:xlink="http://www.w3.org/1999/xlink" width="514pt" height="128pt" viewBox="0.00 0.00 514.30 127.71">
<g id="graph0" class="graph" transform="scale(1 1) rotate(0) translate(4 123.7082)">
<title>G</title>
<polygon fill="#ffffff" stroke="transparent" points="-4,4 -4,-123.7082 510.302,-123.7082 510.302,4 -4,4"/>
<!-- fq0 -->
<g id="node1" class="node">
<title>fq0</title>
<ellipse fill="none" stroke="#00ff00" cx="23.9082" cy="-23.9082" rx="23.8168" ry="23.8168"/>
<text text-anchor="middle" x="23.9082" y="-19.7082" font-family="Times,serif" font-size="14.00" fill="#000000">fq0</text>
</g>
<!-- fq1 -->
<g id="node2" class="node">
<title>fq1</title>
<ellipse fill="none" stroke="#000000" cx="113.9393" cy="-63.9082" rx="23.8168" ry="23.8168"/>
<text text-anchor="middle" x="113.9393" y="-59.7082" font-family="Times,serif" font-size="14.00" fill="#000000">fq1</text>
</g>
<!-- fq0&#45;&gt;fq1 -->
<g id="edge1" class="edge">
<title>fq0-&gt;fq1</title>
<path fill="none" stroke="#000000" d="M46.1631,-33.7959C57.1747,-38.6882 70.6521,-44.6761 82.6799,-50.02"/>
<polygon fill="#000000" stroke="#000000" points="81.3807,-53.2726 91.9405,-54.1343 84.2229,-46.8755 81.3807,-53.2726"/>
<text text-anchor="start" x="65.8165" y="-49.1082" font-family="Times,serif" font-size="14.00" fill="#000000">a</text>
</g>
<!-- fq0&#45;&gt;fq1 -->
<g id="edge3" class="edge">
<title>fq0-&gt;fq1</title>
<path fill="none" stroke="#000000" d="M47.634,-18.3929C55.6464,-17.5953 64.4706,-17.9299 72.0311,-21.1082 80.1619,-24.5264 87.5051,-30.3774 93.69,-36.674"/>
<polygon fill="#000000" stroke="#000000" points="91.114,-39.0438 100.3964,-44.1514 96.3251,-34.37 91.114,-39.0438"/>
<text text-anchor="start" x="65.8165" y="-25.1082" font-family="Times,serif" font-size="14.00" fill="#000000">c</text>
</g>
<!-- fq2 -->
<g id="node3" class="node">
<title>fq2</title>
<ellipse fill="none" stroke="#000000" cx="204.7558" cy="-43.9082" rx="23.8168" ry="23.8168"/>
<text text-anchor="middle" x="204.7558" y="-39.7082" font-family="Times,serif" font-size="14.00" fill="#000000">fq2</text>
</g>
<!-- fq0&#45;&gt;fq2 -->
<g id="edge2" class="edge">
<title>fq0-&gt;fq2</title>
<path fill="none" stroke="#000000" d="M47.2872,-17.9257C70.495,-12.9133 106.9697,-7.5428 137.8476,-14.1082 150.4799,-16.7942 163.62,-22.0393 174.8767,-27.3902"/>
<polygon fill="#000000" stroke="#000000" points="173.3255,-30.5277 183.8368,-31.856 176.4481,-24.2627 173.3255,-30.5277"/>
<text text-anchor="start" x="110.4393" y="-18.1082" font-family="Times,serif" font-size="14.00" fill="#000000">b</text>
</g>
<!-- fq1&#45;&gt;fq2 -->
<g id="edge4" class="edge">
<title>fq1-&gt;fq2</title>
<path fill="none" stroke="#000000" d="M133.5072,-77.8063C142.4735,-82.4581 153.2246,-85.6214 162.8476,-81.9082 169.903,-79.1858 176.5056,-74.6632 182.2894,-69.6697"/>
<polygon fill="#000000" stroke="#000000" points="184.7942,-72.1178 189.6346,-62.6933 179.9735,-67.0423 184.7942,-72.1178"/>
<text text-anchor="start" x="156.2403" y="-87.1082" font-family="Times,serif" font-size="14.00" fill="#000000">a</text>
</g>
<!-- fq1&#45;&gt;fq2 -->
<g id="edge5" class="edge">
<title>fq1-&gt;fq2</title>
<path fill="none" stroke="#000000" d="M137.3269,-58.7578C147.6277,-56.4893 159.9233,-53.7815 171.177,-51.3031"/>
<polygon fill="#000000" stroke="#000000" points="172.1187,-54.6797 181.132,-49.1108 170.6132,-47.8435 172.1187,-54.6797"/>
<text text-anchor="start" x="155.8476" y="-58.1082" font-family="Times,serif" font-size="14.00" fill="#000000">b</text>
</g>
<!-- fq1&#45;&gt;fq2 -->
<g id="edge6" class="edge">
<title>fq1-&gt;fq2</title>
<path fill="none" stroke="#000000" d="M131.1964,-46.7923C138.2404,-40.9534 146.8449,-35.1372 155.8476,-32.1082 161.3322,-30.2629 167.2536,-30.163 173.0183,-31.0286"/>
<polygon fill="#000000" stroke="#000000" points="172.5555,-34.5174 183.0976,-33.4612 174.1978,-27.7127 172.5555,-34.5174"/>
<text text-anchor="start" x="156.2403" y="-36.1082" font-family="Times,serif" font-size="14.00" fill="#000000">c</text>
</g>
<!-- tq0 -->
<g id="node4" class="node">
<title>tq0</title>
<ellipse fill="none" stroke="#000000" cx="296.2018" cy="-43.9082" rx="23.2549" ry="23.2549"/>
<text text-anchor="middle" x="296.2018" y="-39.7082" font-family="Times,serif" font-size="14.00" fill="#000000">tq0</text>
</g>
<!-- fq2&#45;&gt;tq0 -->
<g id="edge7" class="edge">
<title>fq2-&gt;tq0</title>
<path fill="none" stroke="#000000" d="M228.7822,-43.9082C239.0482,-43.9082 251.214,-43.9082 262.3659,-43.9082"/>
<polygon fill="#000000" stroke="#000000" points="262.6522,-47.4083 272.6522,-43.9082 262.6522,-40.4083 262.6522,-47.4083"/>
<text text-anchor="start" x="246.6641" y="-48.1082" font-family="Times,serif" font-size="14.00" fill="#000000">ε</text>
</g>
<!-- tq1 -->
<g id="node5" class="node">
<title>tq1</title>
<ellipse fill="none" stroke="#000000" cx="385.1707" cy="-83.9082" rx="23.2549" ry="23.2549"/>
<text text-anchor="middle" x="385.1707" y="-79.7082" font-family="Times,serif" font-size="14.00" fill="#000000">tq1</text>
</g>
<!-- tq0&#45;&gt;tq1 -->
<g id="edge8" class="edge">
<title>tq0-&gt;tq1</title>
<path fill="none" stroke="#000000" d="M317.7387,-53.5911C328.7762,-58.5535 342.4092,-64.6829 354.5222,-70.1288"/>
<polygon fill="#000000" stroke="#000000" points="353.2763,-73.4061 363.8321,-74.3145 356.1467,-67.0217 353.2763,-73.4061"/>
<text text-anchor="start" x="337.5789" y="-69.1082" font-family="Times,serif" font-size="14.00" fill="#000000">a</text>
</g>
<!-- tq0&#45;&gt;tq1 -->
<g id="edge10" class="edge">
<title>tq0-&gt;tq1</title>
<path fill="none" stroke="#000000" d="M319.1927,-38.4558C327.2451,-37.5966 336.1739,-37.8764 343.7935,-41.1082 351.6878,-44.4566 358.8112,-50.1302 364.8343,-56.2702"/>
<polygon fill="#000000" stroke="#000000" points="362.5886,-59.0117 371.8502,-64.157 367.8187,-54.3591 362.5886,-59.0117"/>
<text text-anchor="start" x="337.5789" y="-45.1082" font-family="Times,serif" font-size="14.00" fill="#000000">c</text>
</g>
<!-- tq2 -->
<g id="node6" class="node">
<title>tq2</title>
<ellipse fill="none" stroke="#0000ff" cx="478.9249" cy="-63.9082" rx="23.2727" ry="23.2727"/>
<ellipse fill="none" stroke="#0000ff" cx="478.9249" cy="-63.9082" rx="27.2548" ry="27.2548"/>
<text text-anchor="middle" x="478.9249" y="-59.7082" font-family="Times,serif" font-size="14.00" fill="#000000">tq2</text>
</g>
<!-- tq0&#45;&gt;tq2 -->
<g id="edge9" class="edge">
<title>tq0-&gt;tq2</title>
<path fill="none" stroke="#000000" d="M319.2559,-37.9799C325.186,-36.7075 331.5852,-35.5526 337.5789,-34.9082 356.1561,-32.9112 305.001,-14.5749 408.5478,-35.1082 420.9915,-37.5758 434.0094,-42.2488 445.4172,-47.1239"/>
<polygon fill="#000000" stroke="#000000" points="444.0158,-50.3312 454.573,-51.2225 446.8758,-43.9421 444.0158,-50.3312"/>
<text text-anchor="start" x="381.6707" y="-39.1082" font-family="Times,serif" font-size="14.00" fill="#000000">b</text>
</g>
<!-- tq1&#45;&gt;tq2 -->
<g id="edge11" class="edge">
<title>tq1-&gt;tq2</title>
<path fill="none" stroke="#000000" d="M404.4493,-97.5997C413.3027,-102.2098 423.9462,-105.3976 433.5478,-101.9082 440.296,-99.4559 446.741,-95.5112 452.5456,-91.0715"/>
<polygon fill="#000000" stroke="#000000" points="455.1578,-93.4476 460.5525,-84.329 450.6488,-88.0931 455.1578,-93.4476"/>
<text text-anchor="start" x="426.9405" y="-107.1082" font-family="Times,serif" font-size="14.00" fill="#000000">a</text>
</g>
<!-- tq1&#45;&gt;tq2 -->
<g id="edge12" class="edge">
<title>tq1-&gt;tq2</title>
<path fill="none" stroke="#000000" d="M408.3459,-78.9644C418.4758,-76.8035 430.6097,-74.215 441.9365,-71.7987"/>
<polygon fill="#000000" stroke="#000000" points="442.9815,-75.1547 452.0312,-69.6453 441.521,-68.3087 442.9815,-75.1547"/>
<text text-anchor="start" x="426.5478" y="-78.1082" font-family="Times,serif" font-size="14.00" fill="#000000">b</text>
</g>
<!-- tq1&#45;&gt;tq2 -->
<g id="edge13" class="edge">
<title>tq1-&gt;tq2</title>
<path fill="none" stroke="#000000" d="M402.2595,-67.3257C409.2205,-61.6699 417.707,-56.0375 426.5478,-53.1082 431.946,-51.3197 437.7593,-51.0052 443.4802,-51.5618"/>
<polygon fill="#000000" stroke="#000000" points="443.1068,-55.0507 453.5682,-53.3743 444.3447,-48.161 443.1068,-55.0507"/>
<text text-anchor="start" x="426.9405" y="-57.1082" font-family="Times,serif" font-size="14.00" fill="#000000">c</text>
</g>
</g>
</svg>