<?xml version="1.0" encoding="UTF-8" standalone="no"?>
<!DOCTYPE svg PUBLIC "-//W3C//DTD SVG 1.1//EN"
 "http://www.w3.org/Graphics/SVG/1.1/DTD/svg11.dtd">
<!-- Generated by graphviz version 2.43.0 (0)
 -->
<!-- Title: G Pages: 1 -->
<svg width="243pt" height="101pt"
 viewBox="0.00 0.00 243.49 100.75" xmlns="http://www.w3.org/2000/svg" xmlns:xlink="http://www.w3.org/1999/xlink">
<g id="graph0" class="graph" transform="scale(1 1) rotate(0) translate(4 96.75)">
<title>G</title>
<polygon fill="white" stroke="transparent" points="-4,4 -4,-96.75 239.49,-96.75 239.49,4 -4,4"/>
<!-- q0 -->
<g id="node1" class="node">
<title>q0</title>
<ellipse fill="none" stroke="green" cx="22.75" cy="-22.75" rx="23" ry="23"/>
<text text-anchor="middle" x="22.75" y="-19.05" font-family="Times,serif" font-size="14.00">q0</text>
</g>
<!-- q1 -->
<g id="node2" class="node">
<title>q1</title>
<ellipse fill="none" stroke="black" cx="113.24" cy="-60.75" rx="23" ry="23"/>
<text text-anchor="middle" x="113.24" y="-57.05" font-family="Times,serif" font-size="14.00">q1</text>
</g>
<!-- q0&#45;&gt;q1 -->
<g id="edge1" class="edge">
<title>q0&#45;&gt;q1</title>
<path fill="none" stroke="black" d="M43.83,-31.37C55.29,-36.29 69.87,-42.55 82.62,-48.03"/>
<polygon fill="black" stroke="black" points="81.37,-51.3 91.94,-52.03 84.13,-44.87 81.37,-51.3"/>
<text text-anchor="start" x="63.5" y="-46.55" font-family="Times,serif" font-size="14.00">a</text>
</g>
<!-- q0&#45;&gt;q1 -->
<g id="edge3" class="edge">
<title>q0&#45;&gt;q1</title>
<path fill="none" stroke="black" d="M45.32,-17.99C54.05,-17.04 64.05,-17.23 72.5,-20.75 79.83,-23.8 86.51,-28.93 92.21,-34.52"/>
<polygon fill="black" stroke="black" points="90,-37.29 99.34,-42.28 95.15,-32.55 90,-37.29"/>
<text text-anchor="start" x="64" y="-24.55" font-family="Times,serif" font-size="14.00">c</text>
</g>
<!-- q2 -->
<g id="node3" class="node">
<title>q2</title>
<ellipse fill="none" stroke="blue" cx="208.74" cy="-41.75" rx="22.96" ry="22.96"/>
<ellipse fill="none" stroke="blue" cx="208.74" cy="-41.75" rx="27" ry="27"/>
<text text-anchor="middle" x="208.74" y="-38.05" font-family="Times,serif" font-size="14.00">q2</text>
</g>
<!-- q0&#45;&gt;q2 -->
<g id="edge2" class="edge">
<title>q0&#45;&gt;q2</title>
<path fill="none" stroke="black" d="M45.05,-17.01C50.98,-15.66 57.45,-14.42 63.5,-13.75 95.52,-10.17 104.33,-7.79 135.99,-13.75 149.26,-16.25 163.23,-21.13 175.28,-26.13"/>
<polygon fill="black" stroke="black" points="173.91,-29.35 184.48,-30.12 176.7,-22.93 173.91,-29.35"/>
<text text-anchor="start" x="108.24" y="-17.55" font-family="Times,serif" font-size="14.00">b</text>
</g>
<!-- q1&#45;&gt;q2 -->
<g id="edge4" class="edge">
<title>q1&#45;&gt;q2</title>
<path fill="none" stroke="black" d="M132.75,-72.55C142.15,-77.06 153.72,-80.35 163.99,-76.75 170.14,-74.59 176.06,-71.17 181.45,-67.29"/>
<polygon fill="black" stroke="black" points="183.8,-69.9 189.46,-60.94 179.45,-64.42 183.8,-69.9"/>
<text text-anchor="start" x="154.49" y="-81.55" font-family="Times,serif" font-size="14.00">a</text>
</g>
<!-- q1&#45;&gt;q2 -->
<g id="edge5" class="edge">
<title>q1&#45;&gt;q2</title>
<path fill="none" stroke="black" d="M135.93,-56.34C146.72,-54.15 160.04,-51.44 172.26,-48.96"/>
<polygon fill="black" stroke="black" points="173.09,-52.36 182.19,-46.94 171.69,-45.5 173.09,-52.36"/>
<text text-anchor="start" x="153.99" y="-55.55" font-family="Times,serif" font-size="14.00">b</text>
</g>
<!-- q1&#45;&gt;q2 -->
<g id="edge6" class="edge">
<title>q1&#45;&gt;q2</title>
<path fill="none" stroke="black" d="M130.24,-44.92C136.99,-39.3 145.3,-33.66 153.99,-30.75 160.27,-28.64 167.11,-28.49 173.74,-29.39"/>
<polygon fill="black" stroke="black" points="173.36,-32.89 183.87,-31.54 174.81,-26.04 173.36,-32.89"/>
<text text-anchor="start" x="154.99" y="-34.55" font-family="Times,serif" font-size="14.00">c</text>
</g>
</g>
</svg>
