<?xml version="1.0" encoding="UTF-8" standalone="no"?><!DOCTYPE svg PUBLIC "-//W3C//DTD SVG 1.1//EN" "http://www.w3.org/Graphics/SVG/1.1/DTD/svg11.dtd"><!-- Generated by graphviz version 2.40.1 (20161225.0304)
 --><!-- Title: G Pages: 1 --><svg xmlns="http://www.w3.org/2000/svg" xmlns:xlink="http://www.w3.org/1999/xlink" width="225pt" height="104pt" viewBox="0.00 0.00 225.38 104.49">
<g id="graph0" class="graph" transform="scale(1 1) rotate(0) translate(4 100.4935)">
<title>G</title>
<polygon fill="#ffffff" stroke="transparent" points="-4,4 -4,-100.4935 221.3753,-100.4935 221.3753,4 -4,4"/>
<!-- q0 -->
<g id="node1" class="node">
<title>q0</title>
<ellipse fill="none" stroke="#00ff00" cx="20.6935" cy="-20.6935" rx="20.8887" ry="20.8887"/>
<text text-anchor="middle" x="20.6935" y="-16.4935" font-family="Times,serif" font-size="14.00" fill="#000000">q0</text>
</g>
<!-- q1 -->
<g id="node2" class="node">
<title>q1</title>
<ellipse fill="none" stroke="#000000" cx="104.295" cy="-60.6935" rx="20.8887" ry="20.8887"/>
<text text-anchor="middle" x="104.295" y="-56.4935" font-family="Times,serif" font-size="14.00" fill="#000000">q1</text>
</g>
<!-- q0&#45;&gt;q1 -->
<g id="edge1" class="edge">
<title>q0-&gt;q1</title>
<path fill="none" stroke="#000000" d="M39.6639,-29.7701C50.4598,-34.9355 64.1865,-41.5031 76.2103,-47.2561"/>
<polygon fill="#000000" stroke="#000000" points="74.8683,-50.4939 85.3996,-51.6528 77.8895,-44.1795 74.8683,-50.4939"/>
<text text-anchor="start" x="59.3869" y="-45.8935" font-family="Times,serif" font-size="14.00" fill="#000000">a</text>
</g>
<!-- q0&#45;&gt;q1 -->
<g id="edge3" class="edge">
<title>q0-&gt;q1</title>
<path fill="none" stroke="#000000" d="M41.0847,-15.475C49.0335,-14.4356 58.0336,-14.5331 65.6015,-17.8935 73.8925,-21.5749 81.1598,-28.0079 87.0901,-34.7849"/>
<polygon fill="#000000" stroke="#000000" points="84.4591,-37.0999 93.4188,-42.7544 89.9409,-32.7467 84.4591,-37.0999"/>
<text text-anchor="start" x="59.3869" y="-21.8935" font-family="Times,serif" font-size="14.00" fill="#000000">c</text>
</g>
<!-- q2 -->
<g id="node3" class="node">
<title>q2</title>
<ellipse fill="none" stroke="#0000ff" cx="192.6819" cy="-40.6935" rx="20.8568" ry="20.8568"/>
<ellipse fill="none" stroke="#0000ff" cx="192.6819" cy="-40.6935" rx="24.8884" ry="24.8884"/>
<text text-anchor="middle" x="192.6819" y="-36.4935" font-family="Times,serif" font-size="14.00" fill="#000000">q2</text>
</g>
<!-- q0&#45;&gt;q2 -->
<g id="edge2" class="edge">
<title>q0-&gt;q2</title>
<path fill="none" stroke="#000000" d="M41.0234,-15.0468C46.9007,-13.6652 53.3572,-12.3855 59.3869,-11.6935 62.1309,-11.3785 62.8399,-11.6423 65.6015,-11.6935 92.0093,-12.1824 99.1308,-8.5088 124.9884,-13.8935 136.6721,-16.3265 138.889,-19.3082 149.9884,-23.6935 153.2787,-24.9934 156.7101,-26.3531 160.135,-27.7128"/>
<polygon fill="#000000" stroke="#000000" points="159.0619,-31.0526 169.6475,-31.4953 161.6484,-24.548 159.0619,-31.0526"/>
<text text-anchor="start" x="100.795" y="-17.8935" font-family="Times,serif" font-size="14.00" fill="#000000">b</text>
</g>
<!-- q1&#45;&gt;q2 -->
<g id="edge4" class="edge">
<title>q1-&gt;q2</title>
<path fill="none" stroke="#000000" d="M120.756,-73.3669C129.4334,-78.4787 140.2667,-82.3933 149.9884,-78.6935 157.0018,-76.0243 163.5973,-71.616 169.4097,-66.729"/>
<polygon fill="#000000" stroke="#000000" points="171.846,-69.2433 176.8161,-59.8866 167.0958,-64.1017 171.846,-69.2433"/>
<text text-anchor="start" x="143.3811" y="-83.8935" font-family="Times,serif" font-size="14.00" fill="#000000">a</text>
</g>
<!-- q1&#45;&gt;q2 -->
<g id="edge5" class="edge">
<title>q1-&gt;q2</title>
<path fill="none" stroke="#000000" d="M124.7949,-56.0548C134.7902,-53.793 147.0814,-51.0118 158.4459,-48.4403"/>
<polygon fill="#000000" stroke="#000000" points="159.5488,-51.7793 168.5298,-46.1585 158.0039,-44.9519 159.5488,-51.7793"/>
<text text-anchor="start" x="142.9884" y="-55.8935" font-family="Times,serif" font-size="14.00" fill="#000000">b</text>
</g>
<!-- q1&#45;&gt;q2 -->
<g id="edge6" class="edge">
<title>q1-&gt;q2</title>
<path fill="none" stroke="#000000" d="M118.6332,-45.4319C125.3694,-39.3572 133.9103,-33.0654 142.9884,-29.8935 148.4059,-28.0005 154.276,-27.7651 160.0196,-28.4675"/>
<polygon fill="#000000" stroke="#000000" points="159.5897,-31.9537 170.0963,-30.5893 161.0321,-25.1039 159.5897,-31.9537"/>
<text text-anchor="start" x="143.3811" y="-33.8935" font-family="Times,serif" font-size="14.00" fill="#000000">c</text>
</g>
</g>
</svg>