<?xml version="1.0" encoding="UTF-8" standalone="no"?>
<!DOCTYPE svg PUBLIC "-//W3C//DTD SVG 1.1//EN"
 "http://www.w3.org/Graphics/SVG/1.1/DTD/svg11.dtd">
<!-- Generated by graphviz version 2.43.0 (0)
 -->
<!-- Title: G Pages: 1 -->
<svg width="351pt" height="128pt"
 viewBox="0.00 0.00 351.38 127.95" xmlns="http://www.w3.org/2000/svg" xmlns:xlink="http://www.w3.org/1999/xlink">
<g id="graph0" class="graph" transform="scale(1 1) rotate(0) translate(4 123.95)">
<title>G</title>
<polygon fill="white" stroke="transparent" points="-4,4 -4,-123.95 347.38,-123.95 347.38,4 -4,4"/>
<!-- kq0 -->
<g id="node1" class="node">
<title>kq0</title>
<ellipse fill="none" stroke="green" cx="31.95" cy="-31.95" rx="27.9" ry="27.9"/>
<ellipse fill="none" stroke="green" cx="31.95" cy="-31.95" rx="31.9" ry="31.9"/>
<text text-anchor="middle" x="31.95" y="-28.25" font-family="Times,serif" font-size="14.00">kq0</text>
</g>
<!-- q0 -->
<g id="node2" class="node">
<title>q0</title>
<ellipse fill="none" stroke="black" cx="130.64" cy="-31.95" rx="23" ry="23"/>
<text text-anchor="middle" x="130.64" y="-28.25" font-family="Times,serif" font-size="14.00">q0</text>
</g>
<!-- kq0&#45;&gt;q0 -->
<g id="edge1" class="edge">
<title>kq0&#45;&gt;q0</title>
<path fill="none" stroke="black" d="M64.07,-31.95C74.76,-31.95 86.73,-31.95 97.49,-31.95"/>
<polygon fill="black" stroke="black" points="97.76,-35.45 107.76,-31.95 97.76,-28.45 97.76,-35.45"/>
<text text-anchor="start" x="81.9" y="-35.75" font-family="Times,serif" font-size="14.00">ε</text>
</g>
<!-- q1 -->
<g id="node3" class="node">
<title>q1</title>
<ellipse fill="none" stroke="black" cx="221.14" cy="-86.95" rx="23" ry="23"/>
<text text-anchor="middle" x="221.14" y="-83.25" font-family="Times,serif" font-size="14.00">q1</text>
</g>
<!-- q0&#45;&gt;q1 -->
<g id="edge2" class="edge">
<title>q0&#45;&gt;q1</title>
<path fill="none" stroke="black" d="M147.9,-47.14C154.82,-53.14 163.18,-59.82 171.39,-64.95 177.32,-68.65 183.97,-72.08 190.41,-75.07"/>
<polygon fill="black" stroke="black" points="189.03,-78.28 199.59,-79.13 191.86,-71.88 189.03,-78.28"/>
<text text-anchor="start" x="171.39" y="-73.75" font-family="Times,serif" font-size="14.00">a</text>
</g>
<!-- q0&#45;&gt;q1 -->
<g id="edge4" class="edge">
<title>q0&#45;&gt;q1</title>
<path fill="none" stroke="black" d="M153.51,-35.67C162.29,-37.8 172.24,-41.06 180.39,-45.95 187.44,-50.18 194.1,-55.97 199.88,-61.87"/>
<polygon fill="black" stroke="black" points="197.35,-64.29 206.69,-69.3 202.5,-59.56 197.35,-64.29"/>
<text text-anchor="start" x="171.89" y="-49.75" font-family="Times,serif" font-size="14.00">c</text>
</g>
<!-- q2 -->
<g id="node4" class="node">
<title>q2</title>
<ellipse fill="none" stroke="blue" cx="316.63" cy="-48.95" rx="22.96" ry="22.96"/>
<ellipse fill="none" stroke="blue" cx="316.63" cy="-48.95" rx="27" ry="27"/>
<text text-anchor="middle" x="316.63" y="-45.25" font-family="Times,serif" font-size="14.00">q2</text>
</g>
<!-- q0&#45;&gt;q2 -->
<g id="edge3" class="edge">
<title>q0&#45;&gt;q2</title>
<path fill="none" stroke="black" d="M153.6,-32.21C181.28,-32.77 230.29,-34.51 271.89,-39.95 274.6,-40.3 277.41,-40.73 280.22,-41.21"/>
<polygon fill="black" stroke="black" points="279.82,-44.69 290.29,-43.08 281.1,-37.81 279.82,-44.69"/>
<text text-anchor="start" x="216.14" y="-39.75" font-family="Times,serif" font-size="14.00">b</text>
</g>
<!-- q1&#45;&gt;q2 -->
<g id="edge5" class="edge">
<title>q1&#45;&gt;q2</title>
<path fill="none" stroke="black" d="M240.55,-99.43C250.13,-104.3 261.9,-107.71 271.89,-102.95 282.04,-98.11 290.6,-89.63 297.38,-80.81"/>
<polygon fill="black" stroke="black" points="300.43,-82.55 303.33,-72.36 294.71,-78.52 300.43,-82.55"/>
<text text-anchor="start" x="262.39" y="-108.75" font-family="Times,serif" font-size="14.00">a</text>
</g>
<!-- q1&#45;&gt;q2 -->
<g id="edge6" class="edge">
<title>q1&#45;&gt;q2</title>
<path fill="none" stroke="black" d="M242.43,-78.7C254.01,-73.99 268.82,-67.97 282.09,-62.58"/>
<polygon fill="black" stroke="black" points="283.46,-65.8 291.41,-58.79 280.83,-59.32 283.46,-65.8"/>
<text text-anchor="start" x="261.89" y="-73.75" font-family="Times,serif" font-size="14.00">b</text>
</g>
<!-- q1&#45;&gt;q2 -->
<g id="edge7" class="edge">
<title>q1&#45;&gt;q2</title>
<path fill="none" stroke="black" d="M235.04,-68.48C241.94,-60.23 251.22,-51.39 261.89,-46.95 267.52,-44.6 273.78,-43.59 279.98,-43.37"/>
<polygon fill="black" stroke="black" points="280.13,-46.88 290.23,-43.67 280.34,-39.88 280.13,-46.88"/>
<text text-anchor="start" x="262.89" y="-50.75" font-family="Times,serif" font-size="14.00">c</text>
</g>
<!-- q2&#45;&gt;q0 -->
<g id="edge8" class="edge">
<title>q2&#45;&gt;q0</title>
<path fill="none" stroke="black" d="M293.67,-34.98C279.95,-27.1 261.58,-18.03 243.89,-13.95 216.37,-7.59 184.55,-13.97 161.83,-20.82"/>
<polygon fill="black" stroke="black" points="160.53,-17.57 152.08,-23.96 162.67,-24.23 160.53,-17.57"/>
<text text-anchor="start" x="217.14" y="-17.75" font-family="Times,serif" font-size="14.00">ε</text>
</g>
</g>
</svg>
