<?xml version="1.0" encoding="UTF-8" standalone="no"?><!DOCTYPE svg PUBLIC "-//W3C//DTD SVG 1.1//EN" "http://www.w3.org/Graphics/SVG/1.1/DTD/svg11.dtd"><!-- Generated by graphviz version 2.40.1 (20161225.0304)
 --><!-- Title: G Pages: 1 --><svg xmlns="http://www.w3.org/2000/svg" xmlns:xlink="http://www.w3.org/1999/xlink" width="329pt" height="130pt" viewBox="0.00 0.00 328.58 130.32">
<g id="graph0" class="graph" transform="scale(1 1) rotate(0) translate(4 126.3219)">
<title>G</title>
<polygon fill="#ffffff" stroke="transparent" points="-4,4 -4,-126.3219 324.5798,-126.3219 324.5798,4 -4,4"/>
<!-- kq0 -->
<g id="node1" class="node">
<title>kq0</title>
<ellipse fill="none" stroke="#00ff00" cx="29.5219" cy="-29.5219" rx="25.5409" ry="25.5409"/>
<ellipse fill="none" stroke="#00ff00" cx="29.5219" cy="-29.5219" rx="29.5439" ry="29.5439"/>
<text text-anchor="middle" x="29.5219" y="-25.3219" font-family="Times,serif" font-size="14.00" fill="#000000">kq0</text>
</g>
<!-- q0 -->
<g id="node2" class="node">
<title>q0</title>
<ellipse fill="none" stroke="#000000" cx="123.8979" cy="-29.5219" rx="20.8887" ry="20.8887"/>
<text text-anchor="middle" x="123.8979" y="-25.3219" font-family="Times,serif" font-size="14.00" fill="#000000">q0</text>
</g>
<!-- kq0&#45;&gt;q0 -->
<g id="edge1" class="edge">
<title>kq0-&gt;q0</title>
<path fill="none" stroke="#000000" d="M59.1241,-29.5219C69.8275,-29.5219 81.9395,-29.5219 92.7699,-29.5219"/>
<polygon fill="#000000" stroke="#000000" points="93.0735,-33.022 103.0735,-29.5219 93.0735,-26.022 93.0735,-33.022"/>
<text text-anchor="start" x="77.0439" y="-33.7219" font-family="Times,serif" font-size="14.00" fill="#000000">ε</text>
</g>
<!-- q1 -->
<g id="node3" class="node">
<title>q1</title>
<ellipse fill="none" stroke="#000000" cx="207.4994" cy="-86.5219" rx="20.8887" ry="20.8887"/>
<text text-anchor="middle" x="207.4994" y="-82.3219" font-family="Times,serif" font-size="14.00" fill="#000000">q1</text>
</g>
<!-- q0&#45;&gt;q1 -->
<g id="edge2" class="edge">
<title>q0-&gt;q1</title>
<path fill="none" stroke="#000000" d="M138.5149,-44.5358C145.4341,-51.1563 154.0422,-58.7304 162.5914,-64.5219 167.6565,-67.9533 173.3359,-71.1625 178.9076,-74.0119"/>
<polygon fill="#000000" stroke="#000000" points="177.5296,-77.2334 188.0552,-78.4433 180.5815,-70.9337 177.5296,-77.2334"/>
<text text-anchor="start" x="162.5914" y="-71.7219" font-family="Times,serif" font-size="14.00" fill="#000000">a</text>
</g>
<!-- q0&#45;&gt;q1 -->
<g id="edge4" class="edge">
<title>q0-&gt;q1</title>
<path fill="none" stroke="#000000" d="M144.5727,-33.6093C152.5605,-35.7976 161.5133,-39.0373 168.806,-43.7219 176.154,-48.4422 182.9851,-54.9117 188.7989,-61.3914"/>
<polygon fill="#000000" stroke="#000000" points="186.4722,-64.0635 195.5816,-69.4737 191.8342,-59.5636 186.4722,-64.0635"/>
<text text-anchor="start" x="162.5914" y="-47.7219" font-family="Times,serif" font-size="14.00" fill="#000000">c</text>
</g>
<!-- q2 -->
<g id="node4" class="node">
<title>q2</title>
<ellipse fill="none" stroke="#0000ff" cx="295.8863" cy="-46.5219" rx="20.8568" ry="20.8568"/>
<ellipse fill="none" stroke="#0000ff" cx="295.8863" cy="-46.5219" rx="24.8884" ry="24.8884"/>
<text text-anchor="middle" x="295.8863" y="-42.3219" font-family="Times,serif" font-size="14.00" fill="#000000">q2</text>
</g>
<!-- q0&#45;&gt;q2 -->
<g id="edge3" class="edge">
<title>q0-&gt;q2</title>
<path fill="none" stroke="#000000" d="M145.0035,-30.6C170.6457,-32.0375 215.1935,-34.9457 253.1929,-39.5219 255.8961,-39.8475 258.6898,-40.2212 261.4941,-40.6229"/>
<polygon fill="#000000" stroke="#000000" points="261.1394,-44.1093 271.5541,-42.1642 262.1995,-37.19 261.1394,-44.1093"/>
<text text-anchor="start" x="203.9994" y="-40.7219" font-family="Times,serif" font-size="14.00" fill="#000000">b</text>
</g>
<!-- q1&#45;&gt;q2 -->
<g id="edge5" class="edge">
<title>q1-&gt;q2</title>
<path fill="none" stroke="#000000" d="M223.8912,-99.7486C232.7424,-105.2183 243.7578,-109.2924 253.1929,-104.5219 264.6125,-98.748 273.7249,-88.3209 280.5497,-77.8839"/>
<polygon fill="#000000" stroke="#000000" points="283.6058,-79.5931 285.7449,-69.2164 277.6017,-75.9942 283.6058,-79.5931"/>
<text text-anchor="start" x="246.5856" y="-109.7219" font-family="Times,serif" font-size="14.00" fill="#000000">a</text>
</g>
<!-- q1&#45;&gt;q2 -->
<g id="edge6" class="edge">
<title>q1-&gt;q2</title>
<path fill="none" stroke="#000000" d="M226.6781,-77.8425C237.602,-72.8988 251.5664,-66.5792 264.0868,-60.913"/>
<polygon fill="#000000" stroke="#000000" points="265.6381,-64.0527 273.3055,-56.741 262.752,-57.6754 265.6381,-64.0527"/>
<text text-anchor="start" x="246.1929" y="-72.7219" font-family="Times,serif" font-size="14.00" fill="#000000">b</text>
</g>
<!-- q1&#45;&gt;q2 -->
<g id="edge7" class="edge">
<title>q1-&gt;q2</title>
<path fill="none" stroke="#000000" d="M218.8823,-68.9787C225.6458,-60.2239 235.0716,-50.5021 246.1929,-45.7219 250.8055,-43.7393 255.8886,-42.6993 260.99,-42.2758"/>
<polygon fill="#000000" stroke="#000000" points="261.3791,-45.7721 271.3421,-42.1681 261.3062,-38.7725 261.3791,-45.7721"/>
<text text-anchor="start" x="246.5856" y="-49.7219" font-family="Times,serif" font-size="14.00" fill="#000000">c</text>
</g>
<!-- q2&#45;&gt;q0 -->
<g id="edge8" class="edge">
<title>q2-&gt;q0</title>
<path fill="none" stroke="#000000" d="M275.2636,-32.6457C262.3496,-24.8106 245.018,-15.7934 228.1929,-11.7219 203.0309,-5.633 173.9632,-11.6435 152.9167,-18.2765"/>
<polygon fill="#000000" stroke="#000000" points="151.6346,-15.0152 143.2814,-21.5324 153.8756,-21.6468 151.6346,-15.0152"/>
<text text-anchor="start" x="203.4191" y="-15.7219" font-family="Times,serif" font-size="14.00" fill="#000000">ε</text>
</g>
</g>
</svg>