<?xml version="1.0" encoding="UTF-8" standalone="no"?><!DOCTYPE svg PUBLIC "-//W3C//DTD SVG 1.1//EN" "http://www.w3.org/Graphics/SVG/1.1/DTD/svg11.dtd"><!-- Generated by graphviz version 2.40.1 (20161225.0304)
 --><!-- Title: G Pages: 1 --><svg xmlns="http://www.w3.org/2000/svg" xmlns:xlink="http://www.w3.org/1999/xlink" width="321pt" height="126pt" viewBox="0.00 0.00 320.58 126.32">
<g id="graph0" class="graph" transform="scale(1 1) rotate(0) translate(4 122.3219)">
<title>G</title>
<polygon fill="#ffffff" stroke="transparent" points="-4,4 -4,-122.3219 316.5798,-122.3219 316.5798,4 -4,4"/>
<!-- kq0 -->
<g id="node1" class="node">
<title>kq0</title>
<ellipse fill="none" stroke="#00ff00" cx="25.5219" cy="-25.5219" rx="25.5439" ry="25.5439"/>
<text text-anchor="middle" x="25.5219" y="-21.3219" font-family="Times,serif" font-size="14.00" fill="#000000">kq0</text>
</g>
<!-- q0 -->
<g id="node2" class="node">
<title>q0</title>
<ellipse fill="none" stroke="#000000" cx="115.8979" cy="-25.5219" rx="20.8887" ry="20.8887"/>
<text text-anchor="middle" x="115.8979" y="-21.3219" font-family="Times,serif" font-size="14.00" fill="#000000">q0</text>
</g>
<!-- kq0&#45;&gt;q0 -->
<g id="edge1" class="edge">
<title>kq0-&gt;q0</title>
<path fill="none" stroke="#000000" d="M51.1783,-25.5219C61.6978,-25.5219 73.966,-25.5219 84.9753,-25.5219"/>
<polygon fill="#000000" stroke="#000000" points="85.0468,-29.022 95.0468,-25.5219 85.0468,-22.022 85.0468,-29.022"/>
<text text-anchor="start" x="69.0439" y="-29.7219" font-family="Times,serif" font-size="14.00" fill="#000000">ε</text>
</g>
<!-- q1 -->
<g id="node3" class="node">
<title>q1</title>
<ellipse fill="none" stroke="#000000" cx="199.4994" cy="-82.5219" rx="20.8887" ry="20.8887"/>
<text text-anchor="middle" x="199.4994" y="-78.3219" font-family="Times,serif" font-size="14.00" fill="#000000">q1</text>
</g>
<!-- q0&#45;&gt;q1 -->
<g id="edge2" class="edge">
<title>q0-&gt;q1</title>
<path fill="none" stroke="#000000" d="M130.5149,-40.5358C137.4341,-47.1563 146.0422,-54.7304 154.5914,-60.5219 159.6565,-63.9533 165.3359,-67.1625 170.9076,-70.0119"/>
<polygon fill="#000000" stroke="#000000" points="169.5296,-73.2334 180.0552,-74.4433 172.5815,-66.9337 169.5296,-73.2334"/>
<text text-anchor="start" x="154.5914" y="-67.7219" font-family="Times,serif" font-size="14.00" fill="#000000">a</text>
</g>
<!-- q0&#45;&gt;q1 -->
<g id="edge4" class="edge">
<title>q0-&gt;q1</title>
<path fill="none" stroke="#000000" d="M136.5727,-29.6093C144.5605,-31.7976 153.5133,-35.0373 160.806,-39.7219 168.154,-44.4422 174.9851,-50.9117 180.7989,-57.3914"/>
<polygon fill="#000000" stroke="#000000" points="178.4722,-60.0635 187.5816,-65.4737 183.8342,-55.5636 178.4722,-60.0635"/>
<text text-anchor="start" x="154.5914" y="-43.7219" font-family="Times,serif" font-size="14.00" fill="#000000">c</text>
</g>
<!-- q2 -->
<g id="node4" class="node">
<title>q2</title>
<ellipse fill="none" stroke="#0000ff" cx="287.8863" cy="-42.5219" rx="20.8568" ry="20.8568"/>
<ellipse fill="none" stroke="#0000ff" cx="287.8863" cy="-42.5219" rx="24.8884" ry="24.8884"/>
<text text-anchor="middle" x="287.8863" y="-38.3219" font-family="Times,serif" font-size="14.00" fill="#000000">q2</text>
</g>
<!-- q0&#45;&gt;q2 -->
<g id="edge3" class="edge">
<title>q0-&gt;q2</title>
<path fill="none" stroke="#000000" d="M137.0035,-26.6C162.6457,-28.0375 207.1935,-30.9457 245.1929,-35.5219 247.8961,-35.8475 250.6898,-36.2212 253.4941,-36.6229"/>
<polygon fill="#000000" stroke="#000000" points="253.1394,-40.1093 263.5541,-38.1642 254.1995,-33.19 253.1394,-40.1093"/>
<text text-anchor="start" x="195.9994" y="-36.7219" font-family="Times,serif" font-size="14.00" fill="#000000">b</text>
</g>
<!-- q1&#45;&gt;q2 -->
<g id="edge5" class="edge">
<title>q1-&gt;q2</title>
<path fill="none" stroke="#000000" d="M215.8912,-95.7486C224.7424,-101.2183 235.7578,-105.2924 245.1929,-100.5219 256.6125,-94.748 265.7249,-84.3209 272.5497,-73.8839"/>
<polygon fill="#000000" stroke="#000000" points="275.6058,-75.5931 277.7449,-65.2164 269.6017,-71.9942 275.6058,-75.5931"/>
<text text-anchor="start" x="238.5856" y="-105.7219" font-family="Times,serif" font-size="14.00" fill="#000000">a</text>
</g>
<!-- q1&#45;&gt;q2 -->
<g id="edge6" class="edge">
<title>q1-&gt;q2</title>
<path fill="none" stroke="#000000" d="M218.6781,-73.8425C229.602,-68.8988 243.5664,-62.5792 256.0868,-56.913"/>
<polygon fill="#000000" stroke="#000000" points="257.6381,-60.0527 265.3055,-52.741 254.752,-53.6754 257.6381,-60.0527"/>
<text text-anchor="start" x="238.1929" y="-68.7219" font-family="Times,serif" font-size="14.00" fill="#000000">b</text>
</g>
<!-- q1&#45;&gt;q2 -->
<g id="edge7" class="edge">
<title>q1-&gt;q2</title>
<path fill="none" stroke="#000000" d="M210.8823,-64.9787C217.6458,-56.2239 227.0716,-46.5021 238.1929,-41.7219 242.8055,-39.7393 247.8886,-38.6993 252.99,-38.2758"/>
<polygon fill="#000000" stroke="#000000" points="253.3791,-41.7721 263.3421,-38.1681 253.3062,-34.7725 253.3791,-41.7721"/>
<text text-anchor="start" x="238.5856" y="-45.7219" font-family="Times,serif" font-size="14.00" fill="#000000">c</text>
</g>
<!-- q2&#45;&gt;q0 -->
<g id="edge8" class="edge">
<title>q2-&gt;q0</title>
<path fill="none" stroke="#000000" d="M267.2636,-28.6457C254.3496,-20.8106 237.018,-11.7934 220.1929,-7.7219 195.0309,-1.633 165.9632,-7.6435 144.9167,-14.2765"/>
<polygon fill="#000000" stroke="#000000" points="143.6346,-11.0152 135.2814,-17.5324 145.8756,-17.6468 143.6346,-11.0152"/>
<text text-anchor="start" x="195.4191" y="-11.7219" font-family="Times,serif" font-size="14.00" fill="#000000">ε</text>
</g>
</g>
</svg>